<svg xmlns="http://www.w3.org/2000/svg" xmlns:xlink="http://www.w3.org/1999/xlink" xml:space="preserve" fill-rule="evenodd" stroke-linejoin="round" stroke-miterlimit="2" clip-rule="evenodd" viewBox="0 0 4662 1428"><defs><path id="a" d="M0 10.47h-50.6c-4.1 0-5.67 2.06-5.67 5.78v3.32c0 3.92 1.57 5.97 5.68 5.97H0zm-56.17 27.89c-11.25 0-15.36-5.28-15.36-14.97v-9c0-9.7 4.1-14.98 15.36-14.98H0v-4.2c0-6.07-2.64-9-8.22-9h-61.65v-14.1h64.98c13.8 0 20.16 7.15 20.16 21.53v44.72z"/><path id="b" fill="#f9d815" d="M0 66.25V53.43h63.02c4.01 0 5.67-2.05 5.67-5.97v-3.13c0-3.62-1.56-5.87-5.57-5.87H15.36C4.11 38.46 0 33.08 0 23.39v-8.42C0 5.28 4.11 0 15.36 0H82.4v12.82H20.93c-4.1 0-5.67 1.96-5.67 5.77v2.64c0 3.72 1.56 5.88 5.67 5.88H68.6c11.35 0 15.46 5.38 15.46 15.07v9.1c0 9.69-4.11 14.97-15.46 14.97z"/><path id="c" d="M0 17.7c5.69 0 7.53-1.6 7.53-5.9V9.62H.38c-5.19 0-6.86.92-6.86 3.93 0 3.3 1.92 4.14 6.48 4.14m-9.79-4.1c0-5.06 3.01-6.81 9.91-6.81H7.5V5.27C7.49 1.05 5.94-.04.84-.04c-4.56 0-6.57.67-6.57 4.39v.17h-3.26V4.1C-9-1.38-5.81-2.9.8-2.9c7.4 0 9.95 1.97 9.95 8v15.18H7.49v-3.4h-.04c-.88 2.14-2.26 3.69-8.25 3.69-6.1 0-8.99-1.88-8.99-6.99"/><path id="d" d="M0 16.9V2.84h-3.22V-.08H0V-5.9h3.26v5.82h6.99v2.92H3.26V16.2c0 2.84.71 3.68 3.77 3.68h3.22v2.93H5.98C1.55 22.8 0 21 0 16.9"/><path id="e" d="M0-22.59h3.26v3.6h.09c.8-2.43 2.63-3.89 7.48-3.89 4.77 0 6.65 1.55 7.53 4.27h.04c.97-3.06 3.43-4.27 8.08-4.27 6.65 0 8.24 2.89 8.24 9.29V.29h-3.3v-13.76c0-4.4-.64-6.4-5.7-6.4-5.35 0-6.73 1.76-6.73 6.7V.28h-3.3v-13.76c0-4.4-.63-6.4-5.78-6.4-5.22 0-6.6 1.72-6.6 6.7V.28H0z"/><path id="f" d="M0-3.64v-.63c0-4.93-1.46-6.4-7.28-6.4-6.15 0-7.61 1.55-7.7 7.03zM-18.28-1.8c0-8.9 2.14-11.75 11-11.75 8.16 0 10.59 2.47 10.59 10.29v2.5h-18.28c.04 6.28 1.25 7.79 8.03 7.79C-1.8 7.03 0 6.07 0 2.17v-.2h3.26v.29c0 5.9-2.8 7.65-10.24 7.65-9.16 0-11.3-2.8-11.3-11.7"/></defs><path fill-rule="nonzero" d="M999.23 596.06c0-21.22-8.72-32.11-31-32.11H699.12v135.94h269.1c22.29 0 31-10.88 31-34.83zM699.12 769.45v91.39h-85.34V492.78h385.45c63.05 0 85.33 29.4 85.33 83.17v103.33c0 63.61-22.22 90.23-85.33 90.23zm538.25 91.35c-76.67 0-112.56-39.66-112.56-119.6V492.74h85.4v239.77c0 32.62 14.66 49.45 45.1 49.45h275.11v78.83z"/><use xlink:href="#a" fill-rule="nonzero" transform="translate(1965.88 647.684)scale(5.55556)"/><path fill-rule="nonzero" d="M2101.27 860.8v-59.27l322.39-239.73h-322.4v-69.05h456.12v59.27L2248.6 792.86h308.78v67.94z"/><use xlink:href="#a" fill-rule="nonzero" transform="translate(3003.208 647.684)scale(5.55556)"/><use xlink:href="#b" fill-rule="nonzero" transform="translate(3141.864 492.747)scale(5.55556)"/><path fill="#f9d815" fill-rule="nonzero" d="M3874.73 860.8V740.64l-238.67-247.9h109.84l172.89 182.12 172.33-182.11h105.44l-236.5 249V860.8z"/><use xlink:href="#b" fill-rule="nonzero" transform="translate(4194.426 492.747)scale(5.55556)"/><path fill="#f9d815" fill-rule="nonzero" d="M704.9-.03H398.44L0 690.25l153.17 265.27z"/><path fill="#3e3e3d" fill-rule="nonzero" d="M1348.59 265.35 1195.39 0 398.47.03l-153.2 265.3z"/><path fill="#f9d815" fill-rule="nonzero" d="m245.27 1115.02 153.2 265.34 796.97-.05 153.25-265.34z"/><path fill="#3e3e3d" fill-rule="nonzero" d="M153.21 424.84.01 690.18l398.49 690.15 306.37.02z"/><path fill-rule="nonzero" d="M1637.99 1297.78c34.38 0 44.16-9.78 44.16-40.17 0-30.22-9.78-40-44.17-40h-68.55v80.17zm-88.06-98.06h89.44c46.23 0 62.28 15.56 62.28 57.9 0 42.5-16.05 58.05-62.28 58.05h-69.94v64.83h-19.5z"/><path d="M1730.22 1199.72h19.5v180.78h-19.5z"/><use xlink:href="#c" fill-rule="nonzero" transform="translate(1835.018 1267.801)scale(5.55556)"/><path fill-rule="nonzero" d="m1920.75 1363.53 77.4-93.17v-.66h-74.84v-16.28h97.39v17.22l-76.95 92.61v.95h78.11v16.27h-101.1z"/><use xlink:href="#c" fill-rule="nonzero" transform="translate(2097.352 1267.801)scale(5.55556)"/><path fill-rule="nonzero" d="M2370.84 1320.56 2326 1216.23h-.5l-44.83 104.33zm-58.34-120.89h26.95l78.1 180.84h-20.94l-18.1-42.06H2273l-18.12 42.06h-20.44zm122 136.25v-82.5h18.11v78.33c0 23.89 8.61 33.45 35.56 33.45 30.67 0 39.28-9.34 39.28-37.45v-74.33h18.33v127.1h-18.33v-20h-.45c-4.66 13-15.33 21.62-43.89 21.62-35.83 0-48.6-15.11-48.6-46.22"/><use xlink:href="#d" fill-rule="nonzero" transform="translate(2586.924 1253.862)scale(5.55556)"/><path fill-rule="nonzero" d="M2724.49 1364.9c36.94 0 43.88-8.77 43.88-48.05 0-39.05-6.88-48.11-43.88-48.11-36.5 0-43.67 9.06-43.67 48.11 0 39.28 7.22 48.06 43.67 48.06m-62.23-48.06c0-49.28 11.95-65.11 62.23-65.11 50.44 0 62.77 15.78 62.77 65 0 49.56-12.33 65.33-62.77 65.33-50.17 0-62.23-15.77-62.23-65.27"/><use xlink:href="#e" fill-rule="nonzero" transform="translate(2817.424 1378.879)scale(5.55556)"/><path fill-rule="nonzero" d="M3092.54 1366.13c31.6 0 41.83-8.88 41.83-32.77v-12.11h-39.72c-28.84 0-38.11 5.1-38.11 21.83 0 18.33 10.66 23 36 23m-54.4-22.78c0-28.11 16.73-37.83 55.12-37.83h40.89v-8.4c0-23.44-8.61-29.5-36.95-29.5-25.33 0-36.5 3.73-36.5 24.4v.94h-18.1v-2.33c-.06-30.45 17.66-38.89 54.38-38.89 41.11 0 55.28 10.94 55.28 44.44v84.34h-18.06v-18.9h-.22c-4.89 11.9-12.56 20.5-45.78 20.5-33.94 0-50-10.44-50-38.82"/><use xlink:href="#d" fill-rule="nonzero" transform="translate(3192.22 1253.862)scale(5.55556)"/><use xlink:href="#f" fill-rule="nonzero" transform="translate(3369.047 1327.062)scale(5.55556)"/><path fill-rule="nonzero" d="M3475.93 1365.18c34.17 0 42.56-9.78 42.56-37.89v-20.67c0-28.1-8.4-38.1-42.56-38.1-36.22 0-43 8.83-43 48.33 0 39.72 6.72 48.33 43 48.33m-61.83-48.33c0-49.06 11.16-65.06 56-65.06 33.94 0 42.1 7.67 47.66 21.61h.45v-73.67h18.33v180.78h-18v-20h-.39c-5.33 13.5-14.16 21.67-48.1 21.67-44.84 0-56-16.11-56-65.33m231.73 51.3c-8.11-8.34-11.67-19.95-11.67-42.5v-4.17h19.34v3.28c0 17.22 2.1 25.05 7.66 30.66 7.67 7.67 21.11 10.45 50 10.45 28.78 0 43.17-3.28 50.61-10.45 5.12-4.89 7.23-12.33 7.23-23 0-13.27-2.11-20-6.06-24.44-6.28-6.95-17.89-9.06-56.94-10.89-36.23-2.11-51.11-6.06-59.95-15.33-6.89-7.67-9.66-19.28-9.66-35.11 0-15.78 3.22-26.95 10.88-34.62 10.95-10.66 29.28-15.33 61.84-15.33 33.89 0 52.5 4.45 62.72 14.67 7.67 7.89 10.44 19.28 10.44 39.22v2.56h-19.05v-1.62c0-15.55-1.61-22.55-6.72-27.44-7.34-6.94-20.11-9.72-47.34-9.72-26.66 0-39.89 2.55-46.89 9.5-4.44 4.66-6.72 11.89-6.72 22.1 0 10.9 1.4 17.68 5.78 22.29 6.28 6.5 17.22 9.05 51.83 10.94 36.95 1.83 55.78 4.61 65.56 15.11 7.39 7.67 9.72 20 9.72 37.4 0 16.94-3.72 28.1-11.39 35.77-11.6 11.39-30.44 16.05-65.55 16.05-36.9 0-54.78-4.66-65.73-15.33m162.71 43.66h17.44c14.4 0 17.67-2.28 23.23-15.78l6.05-14.17-53.66-128.5h20l42.72 105.72h.94l42.5-105.72h19.28l-61.78 149.45c-7.94 19-16.1 24.6-37.22 24.6h-19.5zm139.42-41.84c-5.84-6.22-8.34-13.67-8.34-26.45v-4.44h18.34v3.05c0 8.56 1.83 13.9 6.05 17.9 5.11 4.6 13.9 6 32.95 6 16.78 0 27.66-.67 33.05-5.56 3.67-3.22 5.34-7.9 5.34-14.9 0-7.88-1.9-12.55-5.34-15.32-4.44-3.45-13.05-5.12-36.5-6.28-25.1-1.4-37.44-3.9-44.16-10-5.78-5.34-8.61-13.22-8.61-25.56 0-12.5 3.05-20.89 9.33-26.44 8.55-7.95 22.78-10.22 44.83-10.22 24.4 0 37.4 3.22 45.56 11.1 5.78 6.06 7.89 14.45 7.89 26.06v1.61h-18.17v-.22c0-9.05-2.11-13.94-5.33-16.72-4.9-4.67-15.56-6.11-30-6.11-15.56 0-25.56 1-30.9 5.89-3.21 3-4.88 7.39-4.88 13.89 0 7.72 1.39 10.94 4.61 13.72 4.22 3.5 12.11 4.89 33.28 6.05 28.1 1.67 40.39 3.95 47.83 10.45 6.5 5.83 8.89 15.33 8.89 26.94 0 13.28-3.06 21.9-9.83 27.67-8.56 7.67-23.45 10-46.9 10-27.66 0-40.66-3.5-49.05-12.11"/><use xlink:href="#d" fill-rule="nonzero" transform="translate(4088.431 1253.862)scale(5.55556)"/><use xlink:href="#f" fill-rule="nonzero" transform="translate(4265.259 1327.062)scale(5.55556)"/><use xlink:href="#e" fill-rule="nonzero" transform="translate(4314.748 1378.879)scale(5.55556)"/><path fill-rule="nonzero" d="M4544.78 1370.02c-5.83-6.22-8.33-13.67-8.33-26.45v-4.44h18.33v3.05c0 8.56 1.83 13.9 6.06 17.9 5.1 4.6 13.89 6 32.94 6 16.78 0 27.67-.67 33.06-5.56 3.66-3.22 5.33-7.9 5.33-14.9 0-7.88-1.89-12.55-5.33-15.32-4.45-3.45-13.06-5.12-36.5-6.28-25.11-1.4-37.45-3.9-44.17-10-5.78-5.34-8.61-13.22-8.61-25.56 0-12.5 3.05-20.89 9.33-26.44 8.56-7.95 22.78-10.22 44.84-10.22 24.44 0 37.38 3.22 45.55 11.1 5.78 6.06 7.89 14.45 7.89 26.06v1.61H4627v-.22c0-9.05-2.1-13.94-5.33-16.72-4.89-4.67-15.56-6.11-30-6.11-15.56 0-25.56 1-30.89 5.89-3.22 3-4.89 7.39-4.89 13.89 0 7.72 1.4 10.94 4.61 13.72 4.23 3.5 12.11 4.89 33.28 6.05 28.11 1.67 40.39 3.95 47.83 10.45 6.5 5.83 8.9 15.33 8.9 26.94 0 13.28-3.06 21.9-9.84 27.67-8.56 7.67-23.44 10-46.89 10-27.67 0-40.67-3.5-49.05-12.11"/></svg>