<?xml version="1.0" encoding="UTF-8" standalone="no"?>
<!DOCTYPE svg PUBLIC "-//W3C//DTD SVG 1.1//EN" "http://www.w3.org/Graphics/SVG/1.1/DTD/svg11.dtd">
<svg width="100%" height="100%" viewBox="0 0 4662 1428" version="1.1" xmlns="http://www.w3.org/2000/svg" xmlns:xlink="http://www.w3.org/1999/xlink" xml:space="preserve" xmlns:serif="http://www.serif.com/" style="fill-rule:evenodd;clip-rule:evenodd;stroke-linejoin:round;stroke-miterlimit:2;">
    <g transform="matrix(5.55556,0,0,5.55556,0,0)">
        <g id="Layer-1" serif:id="Layer 1">
            <g transform="matrix(1,0,0,1,179.861,136.351)">
                <path d="M0,-29.064C0,-32.881 -1.566,-34.837 -5.578,-34.837L-54.017,-34.837L-54.017,-10.373L-5.578,-10.373C-1.566,-10.373 0,-12.33 0,-16.636L0,-29.064ZM-54.017,2.152L-54.017,18.592L-69.38,18.592L-69.38,-47.656L0,-47.656C11.352,-47.656 15.364,-42.372 15.364,-32.685L15.364,-14.092C15.364,-2.643 11.352,2.152 0,2.152L-54.017,2.152Z" style="fill-rule:nonzero;"/>
            </g>
            <g transform="matrix(1,0,0,1,222.726,88.6943)">
                <path d="M0,66.249C-13.798,66.249 -20.256,59.106 -20.256,44.721L-20.256,0L-4.893,0L-4.893,43.155C-4.893,49.026 -2.251,52.06 3.229,52.06L52.745,52.06L52.745,66.249L0,66.249Z" style="fill-rule:nonzero;"/>
            </g>
            <g transform="matrix(1,0,0,1,353.858,116.583)">
                <path d="M0,10.471L-50.592,10.471C-54.702,10.471 -56.268,12.526 -56.268,16.245L-56.268,19.572C-56.268,23.486 -54.702,25.541 -50.592,25.541L0,25.541L0,10.471ZM-56.169,38.36C-67.423,38.36 -71.533,33.075 -71.533,23.388L-71.533,14.385C-71.533,4.697 -67.423,-0.587 -56.169,-0.587L0,-0.587L0,-4.795C0,-10.862 -2.642,-13.797 -8.22,-13.797L-69.87,-13.797L-69.87,-27.889L-4.893,-27.889C8.905,-27.889 15.266,-20.745 15.266,-6.36L15.266,38.36L-56.169,38.36Z" style="fill-rule:nonzero;"/>
            </g>
            <g transform="matrix(1,0,0,1,378.228,88.6943)">
                <path d="M0,66.249L0,55.583L58.029,12.428L0,12.428L0,0L82.101,0L82.101,10.667L26.519,54.017L82.101,54.017L82.101,66.249L0,66.249Z" style="fill-rule:nonzero;"/>
            </g>
            <g transform="matrix(1,0,0,1,540.577,116.583)">
                <path d="M0,10.471L-50.592,10.471C-54.702,10.471 -56.268,12.526 -56.268,16.245L-56.268,19.572C-56.268,23.486 -54.702,25.541 -50.592,25.541L0,25.541L0,10.471ZM-56.17,38.36C-67.423,38.36 -71.533,33.075 -71.533,23.388L-71.533,14.385C-71.533,4.697 -67.423,-0.587 -56.17,-0.587L0,-0.587L0,-4.795C0,-10.862 -2.642,-13.797 -8.22,-13.797L-69.869,-13.797L-69.869,-27.889L-4.893,-27.889C8.905,-27.889 15.266,-20.745 15.266,-6.36L15.266,38.36L-56.17,38.36Z" style="fill-rule:nonzero;"/>
            </g>
            <g transform="matrix(1,0,0,1,565.535,88.6943)">
                <path d="M0,66.249L0,53.43L63.02,53.43C67.031,53.43 68.695,51.375 68.695,47.461L68.695,44.329C68.695,40.709 67.13,38.458 63.117,38.458L15.363,38.458C4.11,38.458 0,33.076 0,23.388L0,14.972C0,5.284 4.11,0 15.363,0L82.395,0L82.395,12.82L20.942,12.82C16.831,12.82 15.266,14.776 15.266,18.593L15.266,21.235C15.266,24.953 16.831,27.106 20.942,27.106L68.597,27.106C79.949,27.106 84.059,32.489 84.059,42.176L84.059,51.277C84.059,60.965 79.949,66.249 68.597,66.249L0,66.249Z" style="fill:rgb(249,216,21);fill-rule:nonzero;"/>
            </g>
            <g transform="matrix(1,0,0,1,697.451,88.6943)">
                <path d="M0,66.249L0,44.623L-42.959,0L-23.192,0L7.926,32.782L38.947,0L57.931,0L15.363,44.818L15.363,66.249L0,66.249Z" style="fill:rgb(249,216,21);fill-rule:nonzero;"/>
            </g>
            <g transform="matrix(1,0,0,1,754.996,88.6943)">
                <path d="M0,66.249L0,53.43L63.02,53.43C67.032,53.43 68.695,51.375 68.695,47.461L68.695,44.329C68.695,40.709 67.13,38.458 63.118,38.458L15.364,38.458C4.11,38.458 0,33.076 0,23.388L0,14.972C0,5.284 4.11,0 15.364,0L82.395,0L82.395,12.82L20.942,12.82C16.831,12.82 15.266,14.776 15.266,18.593L15.266,21.235C15.266,24.953 16.831,27.106 20.942,27.106L68.598,27.106C79.949,27.106 84.059,32.489 84.059,42.176L84.059,51.277C84.059,60.965 79.949,66.249 68.598,66.249L0,66.249Z" style="fill:rgb(249,216,21);fill-rule:nonzero;"/>
            </g>
            <g transform="matrix(-1,0,0,1,0.0003,171.994)">
                <path d="M-126.876,-171.994L-71.725,-171.994L0,-47.763L-27.575,0L-126.876,-171.994Z" style="fill:rgb(249,216,21);fill-rule:nonzero;"/>
            </g>
            <g transform="matrix(-0.5,-0.866025,-0.866025,0.5,114.482,-74.0563)">
                <path d="M-169.633,-50.174L-114.481,-50.174L-42.756,74.057L-70.332,121.819L-169.633,-50.174Z" style="fill:rgb(62,62,61);fill-rule:nonzero;"/>
            </g>
            <g transform="matrix(0.5,0.866025,0.866025,-0.5,114.481,126.644)">
                <path d="M28.968,-97.937L84.12,-97.937L155.845,26.294L128.269,74.056L28.968,-97.937Z" style="fill:rgb(249,216,21);fill-rule:nonzero;"/>
            </g>
            <g transform="matrix(-0.5,0.866025,0.866025,0.5,155.845,174.406)">
                <path d="M-20.682,-160.053L34.47,-160.053L106.195,-35.822L78.619,11.941L-20.682,-160.053Z" style="fill:rgb(62,62,61);fill-rule:nonzero;"/>
            </g>
            <g transform="matrix(1,0,0,1,294.837,230.84)">
                <path d="M0,2.761C6.19,2.761 7.947,1.004 7.947,-4.475C7.947,-9.913 6.19,-11.669 0,-11.669L-12.34,-11.669L-12.34,2.761L0,2.761ZM-15.852,-14.89L0.25,-14.89C8.574,-14.89 11.46,-12.088 11.46,-4.475C11.46,3.179 8.574,5.981 0.25,5.981L-12.34,5.981L-12.34,17.651L-15.852,17.651L-15.852,-14.89Z" style="fill-rule:nonzero;"/>
            </g>
            <g transform="matrix(1,0,0,1,0,207.5)">
                <rect x="311.441" y="8.449" width="3.514" height="32.542"/>
            </g>
            <g transform="matrix(1,0,0,1,330.303,228.204)">
                <path d="M0,17.693C5.688,17.693 7.529,16.104 7.529,11.795L7.529,9.621L0.376,9.621C-4.81,9.621 -6.484,10.541 -6.484,13.552C-6.484,16.856 -4.559,17.693 0,17.693M-9.787,13.594C-9.787,8.533 -6.776,6.776 0.125,6.776L7.486,6.776L7.486,5.27C7.486,1.046 5.939,-0.042 0.837,-0.042C-3.723,-0.042 -5.73,0.628 -5.73,4.35L-5.73,4.517L-8.994,4.517L-8.994,4.099C-8.994,-1.38 -5.814,-2.886 0.795,-2.886C8.198,-2.886 10.75,-0.92 10.75,5.103L10.75,20.286L7.486,20.286L7.486,16.898L7.445,16.898C6.567,19.031 5.187,20.579 -0.795,20.579C-6.902,20.579 -9.787,18.697 -9.787,13.594" style="fill-rule:nonzero;"/>
            </g>
            <g transform="matrix(1,0,0,1,345.735,228.665)">
                <path d="M0,16.773L13.929,0L13.929,-0.125L0.46,-0.125L0.46,-3.053L17.986,-3.053L17.986,0.042L4.141,16.731L4.141,16.898L18.195,16.898L18.195,19.826L0,19.826L0,16.773Z" style="fill-rule:nonzero;"/>
            </g>
            <g transform="matrix(1,0,0,1,377.523,228.204)">
                <path d="M0,17.693C5.688,17.693 7.529,16.104 7.529,11.795L7.529,9.621L0.376,9.621C-4.81,9.621 -6.484,10.541 -6.484,13.552C-6.484,16.856 -4.559,17.693 0,17.693M-9.787,13.594C-9.787,8.533 -6.776,6.776 0.125,6.776L7.486,6.776L7.486,5.27C7.486,1.046 5.939,-0.042 0.837,-0.042C-3.723,-0.042 -5.73,0.628 -5.73,4.35L-5.73,4.517L-8.993,4.517L-8.993,4.099C-8.993,-1.38 -5.814,-2.886 0.795,-2.886C8.198,-2.886 10.75,-0.92 10.75,5.103L10.75,20.286L7.486,20.286L7.486,16.898L7.445,16.898C6.567,19.031 5.187,20.579 -0.795,20.579C-6.902,20.579 -9.787,18.697 -9.787,13.594" style="fill-rule:nonzero;"/>
            </g>
            <g transform="matrix(1,0,0,1,426.75,226.741)">
                <path d="M0,10.959L-8.073,-7.822L-8.156,-7.822L-16.229,10.959L0,10.959ZM-10.499,-10.791L-5.646,-10.791L8.407,21.75L4.643,21.75L1.38,14.18L-17.609,14.18L-20.871,21.75L-24.553,21.75L-10.499,-10.791Z" style="fill-rule:nonzero;"/>
            </g>
            <g transform="matrix(1,0,0,1,438.21,233.935)">
                <path d="M0,6.525L0,-8.324L3.262,-8.324L3.262,5.772C3.262,10.08 4.81,11.795 9.662,11.795C15.183,11.795 16.73,10.122 16.73,5.061L16.73,-8.324L20.036,-8.324L20.036,14.556L16.73,14.556L16.73,10.959L16.646,10.959C15.81,13.301 13.886,14.849 8.741,14.849C2.301,14.849 0,12.13 0,6.525" style="fill-rule:nonzero;"/>
            </g>
            <g transform="matrix(1,0,0,1,465.646,225.695)">
                <path d="M0,16.898L0,2.844L-3.22,2.844L-3.22,-0.084L0,-0.084L0,-5.898L3.262,-5.898L3.262,-0.084L10.248,-0.084L10.248,2.844L3.262,2.844L3.262,16.187C3.262,19.032 3.974,19.868 7.027,19.868L10.248,19.868L10.248,22.796L5.981,22.796C1.548,22.796 0,20.997 0,16.898" style="fill-rule:nonzero;"/>
            </g>
            <g transform="matrix(1,0,0,1,490.407,228.413)">
                <path d="M0,17.275C6.651,17.275 7.906,15.686 7.906,8.617C7.906,1.59 6.651,-0.042 0,-0.042C-6.567,-0.042 -7.863,1.59 -7.863,8.617C-7.863,15.686 -6.567,17.275 0,17.275M-11.209,8.617C-11.209,-0.251 -9.035,-3.095 0,-3.095C9.077,-3.095 11.293,-0.251 11.293,8.617C11.293,17.526 9.077,20.37 0,20.37C-9.035,20.37 -11.209,17.526 -11.209,8.617" style="fill-rule:nonzero;"/>
            </g>
            <g transform="matrix(1,0,0,1,507.136,248.198)">
                <path d="M0,-22.587L3.262,-22.587L3.262,-18.99L3.346,-18.99C4.141,-21.416 5.981,-22.88 10.833,-22.88C15.602,-22.88 17.485,-21.332 18.362,-18.613L18.404,-18.613C19.366,-21.667 21.834,-22.88 26.476,-22.88C33.128,-22.88 34.717,-19.994 34.717,-13.594L34.717,0.293L31.412,0.293L31.412,-13.468C31.412,-17.861 30.785,-19.868 25.724,-19.868C20.37,-19.868 18.99,-18.111 18.99,-13.176L18.99,0.293L15.685,0.293L15.685,-13.468C15.685,-17.861 15.058,-19.868 9.913,-19.868C4.685,-19.868 3.304,-18.153 3.304,-13.176L3.304,0.293L0,0.293L0,-22.587Z" style="fill-rule:nonzero;"/>
            </g>
            <g transform="matrix(1,0,0,1,556.656,228.204)">
                <path d="M0,17.693C5.689,17.693 7.529,16.104 7.529,11.795L7.529,9.621L0.377,9.621C-4.81,9.621 -6.483,10.541 -6.483,13.552C-6.483,16.856 -4.558,17.693 0,17.693M-9.787,13.594C-9.787,8.533 -6.775,6.776 0.126,6.776L7.487,6.776L7.487,5.27C7.487,1.046 5.94,-0.042 0.837,-0.042C-3.722,-0.042 -5.729,0.628 -5.729,4.35L-5.729,4.517L-8.993,4.517L-8.993,4.099C-8.993,-1.38 -5.813,-2.886 0.796,-2.886C8.198,-2.886 10.751,-0.92 10.751,5.103L10.751,20.286L7.487,20.286L7.487,16.898L7.445,16.898C6.568,19.031 5.188,20.579 -0.794,20.579C-6.901,20.579 -9.787,18.697 -9.787,13.594" style="fill-rule:nonzero;"/>
            </g>
            <g transform="matrix(1,0,0,1,574.599,225.695)">
                <path d="M0,16.898L0,2.844L-3.22,2.844L-3.22,-0.084L0,-0.084L0,-5.898L3.262,-5.898L3.262,-0.084L10.247,-0.084L10.247,2.844L3.262,2.844L3.262,16.187C3.262,19.032 3.974,19.868 7.027,19.868L10.247,19.868L10.247,22.796L5.981,22.796C1.547,22.796 0,20.997 0,16.898" style="fill-rule:nonzero;"/>
            </g>
            <g transform="matrix(1,0,0,1,606.428,238.871)">
                <path d="M0,-3.639L0,-4.266C0,-9.202 -1.464,-10.666 -7.277,-10.666C-13.427,-10.666 -14.891,-9.118 -14.974,-3.639L0,-3.639ZM-18.278,-1.799C-18.278,-10.708 -16.145,-13.552 -7.277,-13.552C0.879,-13.552 3.305,-11.084 3.305,-3.263L3.305,-0.753L-14.974,-0.753C-14.932,5.521 -13.719,7.027 -6.943,7.027C-1.798,7.027 0,6.065 0,2.175L0,1.966L3.262,1.966L3.262,2.258C3.262,8.156 0.46,9.913 -6.984,9.913C-16.145,9.913 -18.278,7.11 -18.278,-1.799" style="fill-rule:nonzero;"/>
            </g>
            <g transform="matrix(1,0,0,1,625.667,219.002)">
                <path d="M0,26.728C6.148,26.728 7.655,24.971 7.655,19.91L7.655,16.187C7.655,11.126 6.148,9.328 0,9.328C-6.525,9.328 -7.738,10.917 -7.738,18.028C-7.738,25.18 -6.525,26.728 0,26.728M-11.126,18.028C-11.126,9.202 -9.118,6.316 -1.046,6.316C5.062,6.316 6.526,7.697 7.528,10.206L7.612,10.206L7.612,-3.053L10.917,-3.053L10.917,29.488L7.655,29.488L7.655,25.891L7.612,25.891C6.651,28.317 5.062,29.781 -1.046,29.781C-9.118,29.781 -11.126,26.895 -11.126,18.028" style="fill-rule:nonzero;"/>
            </g>
            <g transform="matrix(1,0,0,1,656.24,218.166)">
                <path d="M0,28.108C-1.464,26.602 -2.092,24.51 -2.092,20.453L-2.092,19.7L1.381,19.7L1.381,20.286C1.381,23.381 1.756,24.804 2.761,25.807C4.141,27.187 6.567,27.69 11.753,27.69C16.94,27.69 19.533,27.104 20.871,25.807C21.792,24.929 22.169,23.59 22.169,21.666C22.169,19.282 21.792,18.069 21.08,17.275C19.951,16.02 17.86,15.643 10.834,15.309C4.308,14.932 1.631,14.221 0.042,12.548C-1.213,11.168 -1.715,9.076 -1.715,6.232C-1.715,3.388 -1.129,1.38 0.251,0C2.217,-1.924 5.521,-2.761 11.377,-2.761C17.484,-2.761 20.83,-1.966 22.67,-0.125C24.05,1.297 24.552,3.346 24.552,6.943L24.552,7.404L21.123,7.404L21.123,7.11C21.123,4.308 20.83,3.053 19.909,2.175C18.613,0.92 16.313,0.418 11.418,0.418C6.609,0.418 4.225,0.878 2.97,2.133C2.175,2.97 1.756,4.266 1.756,6.107C1.756,8.072 2.007,9.285 2.802,10.122C3.932,11.293 5.898,11.753 12.13,12.088C18.781,12.423 22.169,12.924 23.925,14.807C25.263,16.187 25.682,18.404 25.682,21.541C25.682,24.594 25.013,26.602 23.632,27.982C21.542,30.032 18.153,30.869 11.837,30.869C5.187,30.869 1.965,30.032 0,28.108" style="fill-rule:nonzero;"/>
            </g>
            <g transform="matrix(1,0,0,1,685.517,228.414)">
                <path d="M0,25.723L3.137,25.723C5.73,25.723 6.317,25.305 7.319,22.879L8.407,20.328L-1.255,-2.803L2.343,-2.803L10.038,16.228L10.206,16.228L17.861,-2.803L21.332,-2.803L10.206,24.092C8.783,27.522 7.319,28.526 3.514,28.526L0,28.526L0,25.723Z" style="fill-rule:nonzero;"/>
            </g>
            <g transform="matrix(1,0,0,1,710.612,227.493)">
                <path d="M0,19.115C-1.046,17.986 -1.506,16.647 -1.506,14.347L-1.506,13.552L1.798,13.552L1.798,14.096C1.798,15.643 2.133,16.606 2.886,17.317C3.806,18.153 5.395,18.404 8.825,18.404C11.838,18.404 13.803,18.278 14.765,17.4C15.434,16.815 15.727,15.978 15.727,14.723C15.727,13.301 15.392,12.465 14.765,11.963C13.97,11.335 12.422,11.043 8.198,10.833C3.681,10.582 1.464,10.122 0.25,9.035C-0.795,8.073 -1.297,6.65 -1.297,4.434C-1.297,2.175 -0.753,0.669 0.376,-0.335C1.923,-1.757 4.475,-2.175 8.449,-2.175C12.84,-2.175 15.183,-1.59 16.647,-0.167C17.693,0.92 18.069,2.426 18.069,4.517L18.069,4.81L14.807,4.81L14.807,4.769C14.807,3.137 14.43,2.259 13.845,1.757C12.966,0.92 11.042,0.669 8.449,0.669C5.647,0.669 3.848,0.837 2.886,1.715C2.301,2.259 2.007,3.053 2.007,4.225C2.007,5.605 2.259,6.191 2.844,6.692C3.597,7.32 5.02,7.571 8.825,7.78C13.886,8.073 16.103,8.491 17.442,9.662C18.612,10.708 19.031,12.423 19.031,14.514C19.031,16.898 18.487,18.446 17.275,19.492C15.727,20.872 13.049,21.29 8.825,21.29C3.848,21.29 1.505,20.663 0,19.115" style="fill-rule:nonzero;"/>
            </g>
            <g transform="matrix(1,0,0,1,735.917,225.695)">
                <path d="M0,16.898L0,2.844L-3.22,2.844L-3.22,-0.084L0,-0.084L0,-5.898L3.262,-5.898L3.262,-0.084L10.247,-0.084L10.247,2.844L3.262,2.844L3.262,16.187C3.262,19.032 3.974,19.868 7.027,19.868L10.247,19.868L10.247,22.796L5.981,22.796C1.547,22.796 0,20.997 0,16.898" style="fill-rule:nonzero;"/>
            </g>
            <g transform="matrix(1,0,0,1,767.746,238.871)">
                <path d="M0,-3.639L0,-4.266C0,-9.202 -1.464,-10.666 -7.277,-10.666C-13.427,-10.666 -14.891,-9.118 -14.974,-3.639L0,-3.639ZM-18.278,-1.799C-18.278,-10.708 -16.145,-13.552 -7.277,-13.552C0.879,-13.552 3.305,-11.084 3.305,-3.263L3.305,-0.753L-14.974,-0.753C-14.932,5.521 -13.719,7.027 -6.943,7.027C-1.798,7.027 0,6.065 0,2.175L0,1.966L3.262,1.966L3.262,2.258C3.262,8.156 0.46,9.913 -6.984,9.913C-16.145,9.913 -18.278,7.11 -18.278,-1.799" style="fill-rule:nonzero;"/>
            </g>
            <g transform="matrix(1,0,0,1,776.654,248.198)">
                <path d="M0,-22.587L3.262,-22.587L3.262,-18.99L3.346,-18.99C4.141,-21.416 5.981,-22.88 10.833,-22.88C15.602,-22.88 17.485,-21.332 18.362,-18.613L18.404,-18.613C19.366,-21.667 21.834,-22.88 26.476,-22.88C33.128,-22.88 34.717,-19.994 34.717,-13.594L34.717,0.293L31.412,0.293L31.412,-13.468C31.412,-17.861 30.785,-19.868 25.724,-19.868C20.37,-19.868 18.99,-18.111 18.99,-13.176L18.99,0.293L15.685,0.293L15.685,-13.468C15.685,-17.861 15.058,-19.868 9.913,-19.868C4.685,-19.868 3.304,-18.153 3.304,-13.176L3.304,0.293L0,0.293L0,-22.587Z" style="fill-rule:nonzero;"/>
            </g>
            <g transform="matrix(1,0,0,1,818.06,227.493)">
                <path d="M0,19.115C-1.046,17.986 -1.505,16.647 -1.505,14.347L-1.505,13.552L1.798,13.552L1.798,14.096C1.798,15.643 2.134,16.606 2.887,17.317C3.807,18.153 5.396,18.404 8.825,18.404C11.838,18.404 13.804,18.278 14.766,17.4C15.434,16.815 15.727,15.978 15.727,14.723C15.727,13.301 15.393,12.465 14.766,11.963C13.97,11.335 12.423,11.043 8.198,10.833C3.681,10.582 1.464,10.122 0.251,9.035C-0.794,8.073 -1.296,6.65 -1.296,4.434C-1.296,2.175 -0.753,0.669 0.377,-0.335C1.924,-1.757 4.476,-2.175 8.45,-2.175C12.841,-2.175 15.184,-1.59 16.648,-0.167C17.694,0.92 18.069,2.426 18.069,4.517L18.069,4.81L14.807,4.81L14.807,4.769C14.807,3.137 14.431,2.259 13.845,1.757C12.967,0.92 11.043,0.669 8.45,0.669C5.647,0.669 3.849,0.837 2.887,1.715C2.301,2.259 2.007,3.053 2.007,4.225C2.007,5.605 2.26,6.191 2.844,6.692C3.598,7.32 5.02,7.571 8.825,7.78C13.887,8.073 16.104,8.491 17.442,9.662C18.613,10.708 19.032,12.423 19.032,14.514C19.032,16.898 18.487,18.446 17.275,19.492C15.727,20.872 13.05,21.29 8.825,21.29C3.849,21.29 1.506,20.663 0,19.115" style="fill-rule:nonzero;"/>
            </g>
        </g>
    </g>
</svg>
